M48
M71
T01C0.500
T02C0.900
T03C1.000
T04C4.000
%
G90
G81
T1
X45500Y66500
X52500Y55000
T2
X75500Y48000
X68500
X94500Y42250
X92000
X89500
X87000
X84500
X94500Y44750
X92000
X89500
X87000
X84500
X94500Y47250
X92000
X89500
X87000
X84500
X89500Y64800
Y67300
Y69800
X64500Y64800
Y67300
X67000Y69800
Y67300
Y64800
X69500
Y67300
Y69800
X72000
Y67300
Y64800
X74500
Y67300
Y69800
X77000
Y67300
Y64800
X79500Y69800
Y67300
Y64800
X82000
Y69800
Y67300
X84500Y69800
Y67300
X87000Y69800
Y67300
X84500Y64800
X87000
X62500Y70000
X60000
X57500
X55000
X87000Y52250
X94500Y49750
X92000
X89500
X87000
X84500
X92000Y52250
Y54750
X89500
X87000
X92000Y57250
X89500
X87000
X94500Y62250
X92000
X84500
X87000
X92000Y59750
X89500
X87000
X89500Y52250
Y62300
X65500Y55500
X63000
X86500Y27500
Y25000
X40640Y68580
X43180
X73000Y50500
X68500
X70500Y55500
X73000
Y53000
X65500
X63000Y50500
X60500
X58000
X63000Y53000
X58000
X60500Y55500
X58000
X37500Y55000
Y47500
X31500Y53500
X26500
X22500Y63500
X25000
X27500
X30000
X32500
X35000
X40640Y50800
Y53340
Y55880
Y58420
Y60960
Y63500
Y66040
X50800
Y63500
Y60960
Y58420
Y55880
Y53340
Y50800
X43180
Y53340
Y55880
Y58420
Y60960
Y63500
Y66040
X84500Y52250
Y54750
Y57250
Y59750
X94500
Y52250
Y54750
Y57250
T3
X91500Y38500
Y36000
Y33500
X86500
Y36000
Y38500
T4
X53500Y32500
X46000
X61000
X23000Y69000
X95000
Y23000
X23000
M30